<?xml version="1.0" encoding="UTF-8" ?>
<!DOCTYPE svg PUBLIC "-//W3C//DTD SVG 1.1//EN" "http://www.w3.org/Graphics/SVG/1.1/DTD/svg11.dtd">
<svg width="623pt" height="623pt" viewBox="0 0 623 623" version="1.1" xmlns="http://www.w3.org/2000/svg">
<g id="#ffffffff">
</g>
<g id="#9fcc3aff">
<path fill="#9fcc3a" opacity="1.00" d=" M 539.19 194.39 C 544.47 193.27 548.91 190.07 553.94 188.27 C 560.96 204.93 559.56 224.45 552.66 240.92 C 549.60 246.46 548.51 252.81 545.40 258.32 C 541.78 265.96 537.09 273.05 533.86 280.89 C 530.84 288.16 525.48 294.12 522.20 301.25 C 518.25 308.17 513.06 314.30 509.07 321.20 C 506.21 326.16 501.68 329.84 498.77 334.76 C 495.80 339.95 490.76 343.46 487.42 348.37 C 484.55 352.79 479.88 355.55 476.74 359.76 C 473.53 364.23 468.65 366.95 464.91 370.90 C 462.27 373.58 459.84 376.56 456.55 378.51 C 451.76 381.31 448.16 385.68 443.40 388.53 C 436.00 392.92 429.08 398.09 421.62 402.40 C 412.59 406.36 404.11 411.55 394.80 414.88 C 388.13 416.28 382.01 419.41 375.46 421.21 C 363.72 424.30 351.85 427.39 339.65 427.73 C 330.80 428.79 321.87 428.56 312.99 429.19 C 304.00 428.56 294.97 428.84 286.00 427.84 C 264.84 427.25 244.51 420.82 224.00 416.27 C 220.09 415.46 216.09 415.37 212.16 414.74 C 185.74 409.48 157.87 407.22 131.63 414.66 C 121.23 416.41 111.97 421.75 102.91 426.87 C 98.75 428.82 94.74 431.21 91.52 434.54 C 88.04 438.11 83.34 440.30 80.27 444.29 C 78.21 446.88 75.91 449.29 73.33 451.38 C 78.62 441.63 84.97 432.49 91.62 423.63 C 94.61 417.58 99.94 413.26 103.61 407.68 C 106.62 403.08 110.83 399.46 114.14 395.09 C 122.27 385.30 131.66 376.66 140.52 367.56 C 144.15 364.15 148.39 361.44 151.84 357.83 C 155.67 353.55 161.02 351.12 165.08 347.09 C 169.20 342.96 174.85 340.99 179.25 337.23 C 186.14 331.41 194.54 327.88 202.00 322.91 C 206.11 320.15 210.59 318.00 215.13 316.04 C 224.44 311.55 233.47 306.29 243.47 303.43 C 253.47 299.44 263.56 295.55 274.03 292.94 C 284.81 290.98 295.21 287.36 306.03 285.56 C 311.98 284.39 317.85 282.81 323.88 282.09 C 329.30 281.19 334.81 281.10 340.23 280.15 C 345.75 279.05 351.41 279.28 357.01 278.84 C 372.01 278.32 387.02 278.45 402.03 278.47 C 404.78 278.49 407.54 278.32 410.27 277.88 C 398.48 277.11 386.92 274.59 375.15 273.67 C 369.10 273.34 363.13 272.13 357.05 272.12 C 329.04 271.08 300.72 270.65 273.05 275.77 C 265.47 277.50 257.78 278.47 250.09 279.44 C 237.13 282.89 224.18 286.57 211.71 291.53 C 201.98 293.84 193.32 298.99 184.31 303.11 C 178.35 305.56 172.34 308.12 167.14 311.97 C 162.81 315.43 158.14 318.71 152.83 320.44 C 144.78 322.56 136.06 314.24 138.63 306.07 C 141.20 299.51 148.40 296.90 152.37 291.44 C 154.59 288.34 156.68 285.13 159.38 282.42 C 165.32 276.63 170.29 269.87 177.06 264.97 C 184.18 257.22 193.36 251.94 201.68 245.66 C 204.37 243.50 207.60 242.24 210.62 240.65 C 218.41 236.24 226.22 231.65 234.82 228.99 C 244.81 224.47 255.37 221.37 266.03 218.87 C 273.85 217.79 281.49 215.78 289.32 214.73 C 297.33 212.99 305.56 212.96 313.70 212.26 C 322.08 211.02 330.56 211.55 339.00 211.44 C 348.06 211.53 357.16 211.08 366.17 212.30 C 377.44 212.87 388.79 212.65 399.99 214.26 C 417.66 214.73 435.36 214.85 453.03 214.46 C 461.67 213.22 470.44 213.26 479.04 211.71 C 487.45 210.69 495.53 208.01 503.88 206.64 C 516.27 204.55 527.46 198.55 539.19 194.39 Z" />
</g>
</svg>
