<?xml version="1.0" encoding="UTF-8" ?>
<!DOCTYPE svg PUBLIC "-//W3C//DTD SVG 1.1//EN" "http://www.w3.org/Graphics/SVG/1.1/DTD/svg11.dtd">
<svg width="1536pt" height="239pt" viewBox="0 0 1536 239" version="1.1" xmlns="http://www.w3.org/2000/svg">
<g id="#1c3227ff">
<path fill="#1c3227" opacity="1.00" d=" M 16.65 0.00 L 173.69 0.00 C 176.59 0.52 180.37 1.52 180.80 5.02 C 181.46 11.35 180.24 17.70 180.49 24.05 C 180.37 29.67 181.67 35.34 180.70 40.93 C 180.04 43.96 176.69 45.08 173.94 45.16 C 165.97 45.45 157.99 45.20 150.02 45.00 C 123.36 44.98 96.70 45.04 70.04 44.97 C 64.74 45.02 59.07 43.84 54.07 46.08 C 50.81 47.72 50.61 51.79 50.75 54.99 C 51.40 65.67 51.50 76.39 50.80 87.07 C 50.69 89.73 50.88 93.20 53.60 94.55 C 57.78 96.47 62.54 95.43 66.97 95.52 C 90.97 95.45 114.98 95.55 138.98 95.47 C 141.29 95.58 144.04 95.33 145.80 97.14 C 147.61 99.29 147.11 102.34 147.08 104.94 C 146.49 113.63 146.74 122.36 147.07 131.06 C 146.98 133.36 147.43 136.02 145.92 137.97 C 144.53 139.76 142.05 139.68 140.01 139.77 C 116.69 139.72 93.36 139.78 70.04 139.74 C 65.06 139.79 59.98 138.87 55.09 140.10 C 52.38 140.68 51.00 143.44 50.90 146.01 C 50.38 152.31 51.04 158.64 51.01 164.95 C 51.04 185.96 50.59 206.95 51.24 227.94 C 51.20 230.79 51.32 234.07 49.30 236.35 C 47.13 238.42 43.83 238.21 41.05 238.18 C 32.40 237.68 23.71 237.13 15.05 237.81 C 11.43 237.96 7.74 238.69 4.15 237.88 C 1.96 237.40 1.13 235.10 0.01 233.44 L 0.00 236.29 L 0.00 6.25 C 0.61 4.08 1.71 1.67 4.10 1.07 C 8.18 -0.04 12.48 0.41 16.65 0.00 Z" />
<path fill="#1c3227" opacity="1.00" d=" M 915.94 0.00 L 1035.34 0.00 C 1036.67 0.37 1039.33 1.10 1040.66 1.46 C 1043.59 3.15 1043.23 7.05 1043.18 9.96 C 1042.55 18.97 1042.62 28.01 1043.14 37.03 C 1043.23 39.67 1043.31 43.15 1040.44 44.40 C 1036.44 45.86 1032.08 44.98 1027.93 45.02 C 1005.93 44.96 983.93 45.04 961.92 44.98 C 959.82 44.94 956.44 45.07 956.62 48.01 C 956.33 65.99 956.58 84.00 956.51 101.99 C 956.15 123.35 956.07 144.72 956.51 166.08 C 956.50 187.39 956.48 208.70 956.53 230.01 C 956.40 232.48 956.62 235.65 954.27 237.20 C 951.76 238.60 948.75 238.10 946.02 238.05 C 936.01 237.42 925.97 237.38 915.97 238.10 C 913.05 238.17 909.69 238.69 907.21 236.80 C 905.41 235.06 905.35 232.38 905.24 230.05 C 905.24 197.04 905.26 164.03 905.24 131.01 C 905.79 108.33 905.32 85.63 905.54 62.94 C 905.58 58.16 906.35 53.14 904.52 48.59 C 902.66 44.73 897.72 44.74 894.05 44.77 C 873.69 45.56 853.33 44.86 832.97 45.02 C 828.80 44.93 824.39 45.94 820.43 44.29 C 818.17 43.11 818.57 40.17 818.47 38.04 C 818.81 28.39 818.98 18.73 818.38 9.09 C 818.33 6.51 818.00 3.15 820.47 1.49 C 822.75 0.28 825.45 0.55 827.95 0.46 C 855.64 0.57 883.34 0.92 911.04 0.72 C 912.67 0.59 914.31 0.35 915.94 0.00 Z" />
<path fill="#1c3227" opacity="1.00" d=" M 1381.06 3.09 C 1382.46 0.21 1386.13 0.20 1388.90 0.33 C 1399.61 1.04 1410.35 0.84 1421.06 0.35 C 1423.74 0.15 1427.13 1.05 1427.81 4.05 C 1428.76 8.97 1428.08 14.01 1428.04 18.98 C 1427.82 39.32 1428.30 59.67 1427.72 80.00 C 1427.74 83.90 1427.18 88.23 1429.86 91.47 C 1436.71 89.25 1442.42 84.53 1449.37 82.49 C 1468.84 75.59 1490.42 79.78 1508.62 88.45 C 1519.38 94.00 1525.30 105.18 1530.33 115.66 C 1534.26 123.38 1535.52 132.07 1536.00 140.62 L 1536.00 233.57 C 1535.31 236.24 1532.99 238.31 1530.14 237.99 C 1520.45 237.98 1510.75 237.42 1501.07 237.92 C 1497.77 237.98 1494.41 238.47 1491.19 237.67 C 1488.79 237.03 1487.98 234.30 1488.02 232.10 C 1487.75 219.05 1488.41 206.01 1488.25 192.96 C 1488.41 180.31 1487.89 167.67 1487.98 155.02 C 1487.55 147.59 1487.23 139.83 1484.11 132.95 C 1479.53 124.04 1469.98 118.31 1460.15 117.29 C 1450.94 116.21 1441.66 119.80 1434.59 125.57 C 1429.20 130.00 1427.08 137.23 1427.54 144.00 C 1428.97 173.33 1427.79 202.69 1428.00 232.04 C 1428.39 235.02 1426.46 238.36 1423.11 237.97 C 1411.26 237.90 1399.39 237.39 1387.55 238.15 C 1387.57 238.36 1387.62 238.79 1387.65 239.00 L 1386.37 239.00 C 1386.38 238.85 1386.40 238.56 1386.41 238.41 C 1384.37 237.75 1381.43 237.58 1380.74 235.10 C 1379.83 231.47 1380.34 227.68 1380.24 223.98 C 1380.24 153.66 1380.27 83.34 1380.23 13.03 C 1380.35 9.73 1379.74 6.23 1381.06 3.09 Z" />
<path fill="#1c3227" opacity="1.00" d=" M 401.63 78.81 C 406.92 78.30 412.62 77.12 417.65 79.43 C 420.30 80.58 421.83 83.32 422.25 86.08 C 423.44 92.69 421.68 99.35 421.75 105.99 C 421.78 147.64 421.71 189.29 421.78 230.95 C 421.74 232.83 421.83 235.01 420.42 236.49 C 418.81 238.34 416.11 237.92 413.93 238.04 C 403.27 237.75 392.58 237.44 381.93 238.17 C 379.66 238.24 377.08 238.40 375.22 236.87 C 373.75 235.29 373.72 233.02 373.72 231.00 C 373.83 184.69 373.65 138.38 373.81 92.08 C 374.18 88.06 373.55 82.12 378.23 80.40 C 385.82 78.06 393.89 80.30 401.63 78.81 Z" />
<path fill="#1c3227" opacity="1.00" d=" M 596.14 92.07 C 610.64 83.04 627.88 77.89 645.04 79.53 C 658.70 80.58 672.29 85.22 682.92 94.03 C 692.43 101.80 699.27 112.83 701.74 124.88 C 702.96 130.50 702.97 136.27 703.06 141.98 C 703.95 172.30 703.09 202.62 703.25 232.95 C 703.44 235.04 702.38 237.57 700.04 237.81 C 693.38 238.45 686.69 237.53 680.02 237.74 C 673.02 237.53 666.02 238.38 659.03 237.87 C 655.31 237.39 655.44 232.88 655.47 230.04 C 655.86 208.68 655.77 187.31 655.71 165.94 C 655.16 155.41 656.27 144.44 652.49 134.37 C 649.34 126.14 641.39 120.57 632.93 118.92 C 625.81 117.47 617.92 116.67 611.25 120.14 C 601.80 125.01 595.55 135.43 595.49 146.04 C 595.52 174.71 595.48 203.39 595.51 232.06 C 595.60 234.20 595.07 236.94 592.71 237.64 C 589.18 238.49 585.49 237.90 581.90 237.91 C 571.90 237.32 561.90 238.26 551.91 237.93 C 549.22 238.05 547.51 235.44 547.64 232.96 C 547.88 188.01 547.68 143.02 547.76 98.05 C 547.87 94.10 547.04 90.02 548.26 86.17 C 549.25 83.45 552.55 83.06 555.05 82.95 C 565.75 82.58 576.33 80.88 586.99 80.02 C 589.22 80.02 591.91 79.56 593.68 81.27 C 595.74 84.45 595.61 88.45 596.14 92.07 Z" />
<path fill="#1c3227" opacity="1.00" d=" M 1104.52 79.80 C 1119.41 78.43 1134.73 79.43 1148.91 84.42 C 1162.38 89.05 1174.42 97.54 1183.66 108.35 C 1193.28 119.95 1197.83 135.05 1198.34 149.95 C 1198.47 156.63 1198.84 163.30 1199.19 169.97 C 1199.51 172.88 1196.78 175.00 1194.06 174.90 C 1181.74 175.31 1169.41 174.35 1157.09 174.85 C 1149.38 175.24 1141.67 174.89 1133.97 174.73 C 1119.97 175.16 1105.97 175.11 1091.97 174.72 C 1089.16 174.85 1086.09 174.30 1083.52 175.71 C 1081.87 176.58 1082.02 178.82 1082.71 180.27 C 1087.04 189.52 1094.81 197.84 1105.07 200.19 C 1120.95 204.22 1137.36 199.43 1151.86 192.87 C 1155.09 191.56 1159.09 188.99 1162.34 191.66 C 1168.26 196.39 1173.18 202.31 1179.45 206.65 C 1182.12 208.69 1185.63 210.46 1186.43 214.04 C 1186.75 217.37 1183.70 219.60 1181.19 221.17 C 1171.71 226.76 1162.05 232.64 1151.10 234.80 C 1140.83 236.60 1130.43 237.66 1120.00 237.96 C 1102.81 238.25 1085.24 235.22 1069.99 226.99 C 1059.86 221.70 1051.89 213.16 1045.17 204.07 C 1035.80 191.38 1030.00 175.85 1029.97 159.99 C 1029.89 144.46 1033.89 128.62 1042.75 115.73 C 1056.55 95.27 1080.08 82.11 1104.52 79.80 M 1109.54 116.75 C 1099.01 118.30 1087.68 124.26 1084.37 135.05 C 1083.55 137.52 1082.56 141.79 1085.94 142.77 C 1105.95 143.70 1126.02 142.12 1146.03 143.16 C 1148.40 143.22 1151.48 141.92 1151.03 139.04 C 1150.21 133.83 1147.84 128.59 1143.58 125.30 C 1134.22 117.62 1121.36 115.03 1109.54 116.75 Z" />
<path fill="#1c3227" opacity="1.00" d=" M 1283.60 79.84 C 1310.64 76.75 1340.16 83.48 1359.78 103.25 C 1361.08 104.51 1361.62 106.82 1360.15 108.17 C 1357.12 111.55 1352.97 113.64 1349.73 116.80 C 1344.83 121.46 1339.05 125.91 1332.10 126.63 C 1325.01 127.47 1318.24 124.27 1312.55 120.36 C 1305.66 115.50 1296.65 114.46 1288.57 116.35 C 1278.68 118.59 1269.55 124.19 1263.10 132.02 C 1255.19 142.02 1252.29 155.63 1254.87 168.06 C 1257.43 179.28 1264.30 189.65 1274.07 195.86 C 1284.97 202.91 1299.36 203.60 1311.09 198.20 C 1317.45 195.63 1322.76 190.12 1329.96 189.96 C 1335.59 189.50 1340.28 193.23 1344.17 196.82 C 1348.96 201.20 1354.28 205.07 1360.26 207.67 C 1361.88 208.35 1364.49 209.76 1363.29 211.92 C 1361.63 214.65 1358.78 216.34 1356.35 218.31 C 1323.23 243.53 1273.91 244.96 1239.58 221.34 C 1224.75 210.28 1212.31 194.39 1209.32 175.74 C 1207.90 168.19 1209.54 160.56 1208.96 152.96 C 1208.30 138.85 1212.75 124.60 1221.34 113.38 C 1236.25 94.14 1259.58 82.43 1283.60 79.84 Z" />
<path fill="#1c3227" opacity="1.00" d=" M 255.52 80.76 C 275.28 77.63 296.44 79.19 314.36 88.67 C 326.50 94.85 336.56 104.78 343.22 116.63 C 348.31 125.74 352.41 135.59 353.82 145.99 C 354.90 153.63 355.00 161.36 355.46 169.04 C 355.66 171.16 355.09 174.01 352.69 174.57 C 348.85 175.44 344.90 174.66 341.01 174.75 C 320.34 174.78 299.66 174.71 278.99 174.78 C 266.37 175.51 253.75 174.39 241.13 174.85 C 238.41 174.65 235.51 177.17 237.11 179.98 C 243.30 194.02 258.98 201.92 273.96 201.28 C 285.62 201.49 297.37 198.49 307.38 192.46 C 309.98 190.98 312.73 188.97 315.90 189.55 C 318.97 190.26 320.95 192.89 322.98 195.10 C 327.00 199.73 331.59 203.81 336.28 207.74 C 338.13 209.43 340.30 211.26 340.56 213.93 C 340.64 216.78 338.60 219.01 336.56 220.72 C 327.73 228.10 316.81 232.80 305.48 234.66 C 283.67 238.77 260.46 240.33 239.21 232.74 C 221.56 226.33 205.12 214.63 195.98 197.91 C 187.44 182.48 185.67 164.23 187.28 146.93 C 188.81 129.71 197.39 113.54 209.47 101.37 C 221.97 89.60 238.83 83.56 255.52 80.76 M 249.97 122.95 C 246.16 125.73 241.67 128.17 239.56 132.61 C 238.18 135.23 238.31 138.26 238.11 141.12 C 239.25 141.98 240.37 143.14 241.95 142.98 C 246.95 143.20 251.95 142.59 256.95 142.73 C 270.27 143.25 283.61 142.88 296.93 143.01 C 299.71 142.96 303.73 144.55 305.34 141.34 C 306.96 137.74 304.63 134.08 302.88 131.02 C 298.93 124.16 291.76 119.72 284.26 117.67 C 272.80 114.42 259.78 116.00 249.97 122.95 Z" />
</g>
<g id="#aeca23ff">
<path fill="#aeca23" opacity="1.00" d=" M 524.09 80.14 C 529.68 79.27 534.95 77.12 540.10 74.86 C 541.59 79.34 541.25 84.29 539.28 88.57 C 532.80 103.39 522.84 117.57 508.22 125.24 C 499.89 129.59 490.33 131.35 480.99 130.82 C 469.23 130.40 457.98 125.05 446.10 126.68 C 439.22 127.36 433.25 131.31 428.53 136.15 C 437.14 121.60 449.92 109.21 465.61 102.58 C 478.09 97.09 491.87 95.52 505.39 95.66 C 487.42 92.95 468.13 94.04 451.95 102.97 C 449.72 104.19 446.78 107.36 444.37 104.73 C 442.24 102.40 445.51 100.55 446.82 98.89 C 451.11 93.85 456.00 89.20 461.98 86.24 C 470.55 81.71 480.37 80.36 489.95 80.24 C 501.32 80.40 512.78 82.03 524.09 80.14 Z" />
</g>
</svg>
